<svg width="82" height="81" viewBox="0 0 82 81" fill="none" xmlns="http://www.w3.org/2000/svg">
<path fill-rule="evenodd" clip-rule="evenodd" d="M31.4544 11.0658C42.4534 7.06834 54.2796 10.6121 62.2528 19.3427C71.5235 29.4939 78.7647 43.5632 71.952 55.4102C64.7429 67.9465 48.7255 70.789 34.7109 67.2368C20.8897 63.7336 8.60299 53.4674 7.77254 39.1429C6.98286 25.5215 18.7635 15.6781 31.4544 11.0658Z" fill="white" fill-opacity="0.2"/>
<path d="M25.9162 0.558594C12.1487 0.558594 1 11.7322 1 25.4998C1 39.2673 12.1487 50.4409 25.9162 50.4409C39.7087 50.4409 50.8824 39.2673 50.8824 25.4998C50.8824 11.7322 39.7087 0.558594 25.9162 0.558594ZM34.1468 37.2471L23.4471 26.5224V13.0292H28.4353V24.4772L37.6885 33.7304L34.1468 37.2471Z" fill="white"/>
</svg>
